<svg xmlns="http://www.w3.org/2000/svg" viewBox="0 0 512 512" fill="none">
  <rect width="512" height="512" rx="128" fill="url(#gradient)" />
  <path d="M256 128c-70.7 0-128 57.3-128 128 0 70.7 57.3 128 128 128 70.7 0 128-57.3 128-128 0-70.7-57.3-128-128-128zm0 224c-53 0-96-43-96-96s43-96 96-96 96 43 96 96-43 96-96 96z" fill="white"/>
  <path d="M256 192c-35.3 0-64 28.7-64 64s28.7 64 64 64c11.2 0 21.7-2.9 30.9-7.9L256 256l96-32c0-35.3-28.7-64-64-64z" fill="white"/>
  <defs>
    <linearGradient id="gradient" x1="0" y1="0" x2="512" y2="512" gradientUnits="userSpaceOnUse">
      <stop offset="0%" style="stop-color:#059669"/>
      <stop offset="100%" style="stop-color:#0d9488"/>
    </linearGradient>
  </defs>
</svg>
